<svg width="512" height="512" version="1.1" xmlns="http://www.w3.org/2000/svg" desc="Created with imagetracer.js version 1.2.6" ><path fill="rgb(0,0,0)" stroke="rgb(0,0,0)" stroke-width="1" opacity="0" d="M 0 0 L 512 0 L 512 512 L 0 512 L 0 0 Z M 173 96 Q 162 100 155 106 Q 140 117 133 136 L 130 147 L 130 168 L 128 170 L 112 176 L 100 184 Q 95 185 96 191 Q 108 200 126 205 L 120 214 L 112 232 L 112 248 L 116 255 L 124 259 Q 137 261 142 253 L 144 256 L 146 266 L 154 289 L 167 307 Q 169 306 168 309 L 173 312 L 296 312 L 297 313 L 299 312 L 325 312 L 327 311 L 330 304 L 335 298 L 338 290 L 343 285 L 363 272 L 375 258 L 376 248 Q 373 243 368 242 L 355 241 L 364 233 L 367 231 Q 387 215 397 188 L 396 179 L 393 176 L 377 177 Q 358 182 344 191 L 342 192 L 351 160 L 353 150 L 353 143 L 354 142 L 354 124 L 352 119 Q 351 114 343 115 L 330 129 L 315 149 L 270 215 L 264 219 L 255 220 L 240 224 L 232 224 L 223 188 L 214 170 L 217 166 L 227 157 Q 226 154 229 155 L 237 142 L 240 130 L 240 125 L 238 118 L 232 112 Q 219 110 212 114 L 191 127 L 186 128 L 188 119 L 188 103 L 187 101 Q 184 94 173 96 Z M 402 333 L 397 336 L 395 341 L 396 347 L 402 351 Q 408 352 411 349 L 414 345 L 413 338 Q 410 332 402 333 Z M 241 335 L 239 336 L 235 341 L 235 408 L 241 412 Q 248 413 250 408 L 250 342 L 249 339 Q 247 335 241 335 Z M 268 335 L 264 336 L 262 342 L 262 407 L 263 409 L 268 412 L 274 411 L 277 407 L 277 341 L 275 336 L 268 335 Z M 376 335 L 374 336 L 370 341 L 370 407 L 371 409 L 376 412 Q 382 413 384 410 L 385 407 L 385 342 L 384 338 Q 382 334 376 335 Z M 131 338 L 114 344 L 103 356 L 98 369 L 98 383 L 104 398 Q 112 410 129 413 Q 150 414 160 404 L 168 392 L 170 383 L 169 374 L 165 371 L 137 371 L 133 373 L 131 377 L 132 383 L 137 385 L 147 385 L 148 386 L 154 385 L 152 391 L 145 397 L 140 398 L 128 397 L 123 394 Q 116 390 114 381 L 114 372 L 118 362 Q 122 356 130 354 L 144 354 L 156 361 L 161 360 L 164 356 L 164 353 L 160 346 Q 157 347 158 344 L 146 339 L 131 338 Z M 317 338 L 302 345 L 290 359 L 286 373 L 286 379 L 289 392 L 295 401 Q 304 410 319 413 Q 336 413 346 406 Q 356 398 360 384 Q 362 371 359 364 L 350 348 Q 347 349 348 346 L 335 339 L 317 338 Z M 196 357 L 188 359 L 182 362 L 179 368 L 179 372 L 184 375 L 195 370 L 206 371 Q 210 373 208 379 L 194 379 L 182 384 L 176 392 Q 175 403 179 408 L 190 413 L 192 412 L 197 413 L 199 413 Q 206 411 210 406 Q 212 405 211 408 L 217 412 Q 223 413 226 411 Q 227 405 224 402 L 224 376 L 220 366 Q 213 356 196 357 Z M 404 358 L 401 359 L 397 364 L 397 407 L 399 411 L 402 412 Q 411 414 412 408 L 412 364 L 411 360 L 404 358 Z " /><path fill="rgb(0,0,0)" stroke="rgb(0,0,0)" stroke-width="1" opacity="0" d="M 316.5 354 L 330.5 354 Q 337.3 356.3 341 361.5 L 344 367.5 L 344 382.5 Q 341.4 389.9 335.5 394 Q 330 398.5 318.5 397 Q 310.2 395.3 306 389.5 Q 300.9 382.6 303 368.5 Q 304.9 360.8 310.5 357 L 316.5 354 Z " /><path fill="rgb(0,0,0)" stroke="rgb(0,0,0)" stroke-width="1" opacity="0" d="M 197.5 389 L 207.5 389 L 209 390.5 Q 209.1 398.6 203.5 401 L 195.5 402 L 191 398.5 Q 189.5 392.5 192.5 391 L 197.5 389 Z " /><path fill="rgb(24,90,131)" stroke="rgb(24,90,131)" stroke-width="1" opacity="0.9803921568627451" d="M 172.5 96 Q 184 94 187 100.5 L 188 102.5 L 188 118.5 L 186 128 L 190.5 127 L 211.5 114 Q 218.8 110.3 231.5 112 L 238 117.5 L 240 124.5 L 240 129.5 L 237 141.5 L 229 155 Q 226.3 153.9 227 156.5 L 217 165.5 L 214.5 169 L 210 165.5 L 203.5 158 L 184.5 148 L 164.5 147 Q 163.3 149.3 158.5 148 L 146.5 153 L 134 163.5 L 130.5 168 L 130 146.5 Q 136.2 120.2 154.5 106 Q 162 99.5 172.5 96 Z " /><path fill="rgb(24,90,131)" stroke="rgb(24,90,131)" stroke-width="1" opacity="0.9803921568627451" d="M 161 171 Q 167.4 171.3 170 176.5 L 172 182.5 Q 170.9 189.9 165.5 193 L 159.5 194 L 153 191 L 150 184.5 L 150 179.5 L 152.5 181 L 156.5 182 L 161 180 L 162 173.5 L 161 171 Z " /><path fill="rgb(24,90,131)" stroke="rgb(24,90,131)" stroke-width="1" opacity="0.9803921568627451" d="M 401.5 333 Q 410.4 332.1 413 337.5 L 414 344.5 L 410.5 349 Q 408.2 352.2 401.5 351 L 396 346.5 L 395 340.5 L 397 336 L 401.5 333 Z " /><path fill="rgb(24,90,131)" stroke="rgb(24,90,131)" stroke-width="1" opacity="0.9803921568627451" d="M 240.5 335 Q 246.9 334.6 249 338.5 L 250 341.5 L 250 407.5 Q 248.4 412.9 240.5 412 L 235 407.5 L 235 340.5 L 238.5 336 L 240.5 335 Z " /><path fill="rgb(24,90,131)" stroke="rgb(24,90,131)" stroke-width="1" opacity="0.9803921568627451" d="M 267.5 335 L 275 336 L 277 340.5 L 277 406.5 L 273.5 411 L 267.5 412 L 263 408.5 L 262 406.5 L 262 341.5 L 264 336 L 267.5 335 Z " /><path fill="rgb(24,90,131)" stroke="rgb(24,90,131)" stroke-width="1" opacity="0.9803921568627451" d="M 375.5 335 Q 381.7 334.3 384 337.5 L 385 341.5 L 385 406.5 L 384 410 Q 381.7 412.6 375.5 412 L 371 408.5 L 370 406.5 L 370 340.5 L 373.5 336 L 375.5 335 Z " /><path fill="rgb(24,90,131)" stroke="rgb(24,90,131)" stroke-width="1" opacity="0.9803921568627451" d="M 130.5 338 L 145.5 339 L 158 344 Q 156.9 346.7 159.5 346 L 164 352.5 L 164 355.5 L 160.5 360 L 155.5 361 L 143.5 354 L 129.5 354 Q 122.2 356.2 118 361.5 L 114 371.5 L 114 380.5 Q 115.8 389.8 122.5 394 L 127.5 397 L 139.5 398 L 144.5 397 L 152 390.5 L 154 385 L 147.5 386 L 146.5 385 L 136.5 385 L 132 382.5 L 131 376.5 L 133 373 L 136.5 371 L 164.5 371 L 169 373.5 L 170 382.5 L 168 391.5 L 159.5 404 Q 150 414.5 128.5 413 Q 111.7 409.8 104 397.5 L 98 382.5 L 98 368.5 L 103 355.5 L 113.5 344 L 130.5 338 Z " /><path fill="rgb(24,90,131)" stroke="rgb(24,90,131)" stroke-width="1" opacity="0.9803921568627451" d="M 316.5 338 L 334.5 339 L 348 346 Q 346.9 348.7 349.5 348 L 359 363.5 Q 361.6 371.4 360 383.5 Q 356.5 398.5 345.5 406 Q 335.9 413.4 318.5 413 Q 303.5 410 295 400.5 L 289 391.5 L 286 378.5 L 286 372.5 L 290 358.5 L 301.5 345 L 316.5 338 Z M 317 354 L 311 357 Q 305 361 303 369 Q 301 383 306 390 Q 310 395 319 397 Q 330 399 336 394 Q 341 390 344 383 L 344 368 L 341 362 Q 337 356 331 354 L 317 354 Z " /><path fill="rgb(24,90,131)" stroke="rgb(24,90,131)" stroke-width="1" opacity="0.9803921568627451" d="M 195.5 357 Q 213.1 355.9 220 365.5 L 224 375.5 L 224 401.5 Q 227 404.8 226 411 Q 223.3 412.9 216.5 412 L 211 407.5 Q 211.8 405.3 209.5 406 Q 205.5 411 198.5 413 L 196.5 413 L 191.5 412 L 189.5 413 L 179 408 Q 174.5 403.3 176 391.5 L 181.5 384 L 193.5 379 L 208 379 Q 209.5 372.7 205.5 371 L 194.5 370 L 183.5 375 L 179 371.5 L 179 367.5 L 182 362 L 187.5 359 L 195.5 357 Z M 198 389 L 193 391 Q 189 393 191 399 L 196 402 L 204 401 Q 209 399 209 391 L 208 389 L 198 389 Z " /><path fill="rgb(24,90,131)" stroke="rgb(24,90,131)" stroke-width="1" opacity="0.9803921568627451" d="M 403.5 358 L 411 360 L 412 363.5 L 412 407.5 Q 410.5 413.5 401.5 412 L 399 411 L 397 406.5 L 397 363.5 L 400.5 359 L 403.5 358 Z " /><path fill="rgb(243,147,41)" stroke="rgb(243,147,41)" stroke-width="1" opacity="0.9882352941176471" d="M 342.5 115 Q 350.5 113.5 352 118.5 L 354 123.5 L 354 141.5 L 353 142.5 L 353 149.5 L 351 159.5 L 342 191.5 L 343.5 191 Q 358.5 182.5 376.5 177 L 392.5 176 L 396 178.5 L 397 187.5 Q 387.1 214.6 366.5 231 L 363.5 233 L 355 240.5 L 367.5 242 Q 373.3 243.3 376 247.5 L 375 257.5 L 362.5 272 L 342.5 285 L 338 289.5 L 335 297.5 L 330 303.5 L 326.5 311 L 324.5 312 L 298.5 312 L 296.5 313 L 295.5 312 L 172.5 312 L 168 308.5 Q 168.8 306.3 166.5 307 L 154 288.5 L 146 265.5 L 144 255.5 L 141.5 253 Q 137 260.5 123.5 259 L 116 255 L 112 247.5 L 112 231.5 L 120 213.5 L 126 204.5 Q 108.5 200 96 190.5 Q 95.3 184.8 99.5 184 Q 110.8 174.3 127.5 170 L 134 164.5 L 139.5 158 L 146.5 153 L 158.5 148 L 178.5 147 Q 198.8 151.2 210 164.5 L 216 171.5 L 223 187.5 L 232 224 L 239.5 224 L 254.5 220 L 263.5 219 L 270 214.5 L 315 148.5 L 330 128.5 L 342.5 115 Z M 161 171 L 162 174 L 161 180 L 157 182 L 153 181 L 150 180 L 150 185 L 153 191 L 160 194 L 166 193 Q 171 190 172 183 L 170 177 Q 167 171 161 171 Z " /></svg>